HIERARCHY
ROOT Hips
{
  OFFSET 3.13124 94.3669 -3.18751
  CHANNELS  6 Xposition Yposition Zposition Zrotation Xrotation Yrotation
  JOINT LeftUpLeg
  {
    OFFSET 8.64259 1.95398 -2.38835
    CHANNELS 3 Zrotation Xrotation Yrotation
    JOINT LeftLeg
    {
      OFFSET 43.7702 0 0
      CHANNELS 3 Zrotation Xrotation Yrotation
      JOINT LeftFoot
      {
        OFFSET 40.6238 0 0
        CHANNELS 3 Zrotation Xrotation Yrotation
        JOINT LeftToeBase
        {
          OFFSET 12.7242 0 0
          CHANNELS 3 Zrotation Xrotation Yrotation
          End Site
          {
            OFFSET 0 0 0
          }
        }
      }
    }
  }
  JOINT RightUpLeg
  {
    OFFSET -8.2249 1.95398 -2.59336
    CHANNELS 3 Zrotation Xrotation Yrotation
    JOINT RightLeg
    {
      OFFSET 43.5653 0 0
      CHANNELS 3 Zrotation Xrotation Yrotation
      JOINT RightFoot
      {
        OFFSET 40.6238 0 0
        CHANNELS 3 Zrotation Xrotation Yrotation
        JOINT RightToeBase
        {
          OFFSET 12.7242 0 0
          CHANNELS 3 Zrotation Xrotation Yrotation
          End Site
          {
            OFFSET 0 0 0
          }
        }
      }
    }
  }
  JOINT Spine
  {
    OFFSET 0.165834 0.87714 6.61349
    CHANNELS 3 Zrotation Xrotation Yrotation
    JOINT Spine1
    {
      OFFSET 7.38962 1.71661e-005 0
      CHANNELS 3 Zrotation Xrotation Yrotation
      JOINT Spine2
      {
        OFFSET 11.9445 1.14441e-005 0
        CHANNELS 3 Zrotation Xrotation Yrotation
        JOINT Spine3
        {
          OFFSET 14.7254 4.19617e-005 0
          CHANNELS 3 Zrotation Xrotation Yrotation
          JOINT Spine4
          {
            OFFSET 10.9679 0 0
            CHANNELS 3 Zrotation Xrotation Yrotation
            JOINT RightShoulder
            {
              OFFSET 2.46616 -1.6653 3.69651
              CHANNELS 3 Zrotation Xrotation Yrotation
              JOINT RightArm
              {
                OFFSET 13.0012 0 0
                CHANNELS 3 Zrotation Xrotation Yrotation
                JOINT RightForeArm
                {
                  OFFSET 28.7848 1.52588e-005 0
                  CHANNELS 3 Zrotation Xrotation Yrotation
                  JOINT RightHand
                  {
                    OFFSET 26.5688 1.52588e-005 0
                    CHANNELS 3 Zrotation Xrotation Yrotation
                    End Site
                    {
                      OFFSET 0 0 0
                    }
                  }
                }
              }
            }
            JOINT LeftShoulder
            {
              OFFSET 2.38034 -1.29275 -3.75231
              CHANNELS 3 Zrotation Xrotation Yrotation
              JOINT LeftArm
              {
                OFFSET 16.3182 6.10352e-005 0
                CHANNELS 3 Zrotation Xrotation Yrotation
                JOINT LeftForeArm
                {
                  OFFSET 27.0901 0 0
                  CHANNELS 3 Zrotation Xrotation Yrotation
                  JOINT LeftHand
                  {
                    OFFSET 24.5451 1.52588e-005 0
                    CHANNELS 3 Zrotation Xrotation Yrotation
                    End Site
                    {
                      OFFSET 0 0 0
                    }
                  }
                }
              }
            }
            JOINT Neck
            {
              OFFSET 5.0226 -0.0266342 0
              CHANNELS 3 Zrotation Xrotation Yrotation
              JOINT Head
              {
                OFFSET 6.69363 2.86102e-005 0
                CHANNELS 3 Zrotation Xrotation Yrotation
                End Site
                {
                  OFFSET 0 0 0
                }
              }
            }
          }
        }
      }
    }
  }
}
MOTION
Frames:	5
Frame Time:	0.0333333
-1.12201 96.8044 -20.1216 164.529 -89.9919 164.585 -170.663 3.32081 95.6913 -8.67067 9.46967 0.0126835 63.2184 2.15475 1.14724 28.7808 4.52422e-006 3.17551e-006 178.826 1.94708 88.0557 -7.64661 -1.07675 -0.0617382 62.7501 -1.32916 -0.67491 28.7808 1.45925e-005 2.59293e-005 0.00443999 6.33999 -90.0562 14.1934 -0.00704378 -0.00411337 2.52251 -0.00656259 -0.00192438 -20.0126 -0.00996188 -0.0030653 -5.32846e-007 -0.00996503 -0.0030637 100.842 -18.385 -85.446 10.8145 47.1915 -22.0895 -3.27682 -0.0393018 -14.7544 -5.37983 -0.32001 -0.0162431 -78.6989 -20.7068 94.9392 4.72058 -46.4159 -19.9053 7.40057 48.139 -8.07639 -2.30913 -0.0829205 -0.554504 1.73899 0.00113001 0.00147399 -7.39857 0.00425959 0.00148108 
-1.15552 96.7966 -20.1517 176.181 -89.8793 176.206 -170.653 3.31569 95.6986 -8.86952 9.54332 0.0429731 63.3375 2.11887 1.12362 28.7808 4.52422e-006 3.17551e-006 178.867 2.50765 88.0543 -9.02123 -1.0329 -0.0617374 63.3811 -1.39158 -0.720797 28.7808 1.45925e-005 2.59293e-005 0.00151446 6.3402 -90.0198 14.1935 -0.00704378 -0.00411337 2.52256 -0.00656259 -0.00192438 -20.0126 -0.00996188 -0.0030653 4.63717e-005 -0.00996503 -0.0030637 100.746 -18.381 -85.4279 10.8113 47.2362 -22.2525 -3.27675 -0.039319 -14.6591 -5.37983 -0.32001 -0.0162431 -78.8548 -20.6336 94.8189 4.80429 -46.4637 -19.6949 7.65951 47.6514 -8.44433 -2.32249 -0.0829185 -0.683998 1.52733 0.0147215 0.0246445 -7.22224 0.00370757 0.0237494 
-1.18625 96.7952 -20.1987 162.547 -89.9305 162.6 -170.658 3.3319 95.7297 -8.68651 9.52341 0.0421439 63.213 2.08802 1.10894 28.7808 4.52422e-006 3.17551e-006 178.858 2.22135 88.1011 -8.23165 -1.07044 -0.0617381 62.9777 -1.35773 -0.694972 28.7808 1.45925e-005 2.59293e-005 0.00422429 6.3407 -90.0544 14.1925 -0.00704378 -0.00411337 2.52157 -0.00656259 -0.00192438 -20.0136 -0.00996188 -0.0030653 -0.000939534 -0.00996503 -0.0030637 100.811 -18.3091 -85.3929 10.8271 47.2463 -22.3588 -3.27673 -0.039325 -14.6253 -5.37983 -0.32001 -0.0162431 -78.786 -20.7578 94.8523 4.89854 -46.601 -19.8563 7.82324 47.9253 -8.42442 -2.27782 -0.0828934 -1.56659 1.67836 -0.0315845 0.0390207 -7.36369 -0.00477027 0.0279022 
-1.21794 96.7946 -20.242 163.963 -89.9036 164.016 -170.65 3.33823 95.7501 -8.67188 9.55958 0.0402259 63.1446 2.06178 1.09376 28.7808 4.52422e-006 3.17551e-006 178.866 2.16174 88.1234 -8.11306 -1.01558 -0.061737 62.9171 -1.3821 -0.708184 28.7808 1.45925e-005 2.59293e-005 0.00272821 6.35344 -90.056 14.167 -0.00704378 -0.00411337 2.49608 -0.00656259 -0.00192438 -20.0391 -0.00996188 -0.0030653 -0.026435 -0.00996503 -0.0030637 100.89 -18.3244 -85.35 10.8357 47.2774 -22.6333 -3.27655 -0.0393703 -14.3704 -5.37983 -0.32001 -0.0162431 -78.7244 -20.6559 94.8606 4.86441 -46.6094 -19.9558 7.68116 47.8011 -8.37106 -2.01763 -0.0829098 -1.07424 1.84548 0.00164739 0.0163246 -7.47785 -0.00564815 0.0822565 
-1.24877 96.7991 -20.2863 170.698 -89.8225 170.717 -170.643 3.39183 95.7437 -8.91503 9.55034 0.0404023 63.1868 2.06755 1.09329 28.7808 4.52422e-006 3.17551e-006 178.889 2.51773 88.1042 -8.9806 -1.03277 -0.0617374 63.2873 -1.44227 -0.748803 28.7808 1.45925e-005 2.59293e-005 -0.00110253 6.3546 -90.0178 14.165 -0.00704378 -0.00411337 2.49406 -0.00656259 -0.00192438 -20.0411 -0.00996188 -0.0030653 -0.0284602 -0.00996503 -0.0030637 100.831 -18.312 -85.4884 10.7355 47.3951 -22.6151 -3.2765 -0.0393864 -14.2787 -5.37983 -0.32001 -0.0162431 -78.8012 -20.5842 94.6913 5.06467 -46.6367 -19.7644 7.56879 47.6559 -8.29645 -2.09781 -0.0827152 -1.16639 1.53581 0.0244456 -0.048429 -7.12573 0.0263675 0.136099 
